<?xml version="1.0" standalone="no"?>
<!DOCTYPE svg PUBLIC "-//W3C//DTD SVG 20010904//EN"
 "http://www.w3.org/TR/2001/REC-SVG-20010904/DTD/svg10.dtd">
<svg version="1.0" xmlns="http://www.w3.org/2000/svg"
 width="48.000000pt" height="48.000000pt" viewBox="0 0 48.000000 48.000000"
 preserveAspectRatio="xMidYMid meet">

<rect width="48" height="48" fill="green"/>
<g transform="translate(0.000000,48.000000) scale(0.100000,-0.100000)"
fill="#000000" stroke="none">
<path d="M251 418 c-1 -10 -11 -27 -23 -39 -17 -16 -19 -23 -10 -26 7 -3 18
-17 24 -32 7 -18 12 -22 15 -11 3 8 14 25 25 37 17 18 18 22 4 30 -8 4 -19 19
-25 33 -6 17 -10 19 -10 8z"/>
<path d="M26 394 c-14 -14 -16 -37 -14 -162 2 -105 6 -146 16 -150 9 -3 12 25
12 116 0 66 3 127 6 136 5 12 21 16 71 16 64 0 64 0 61 28 -3 26 -5 27 -69 30
-51 2 -71 -1 -83 -14z"/>
<path d="M84 286 c-10 -25 0 -61 18 -64 12 -2 19 5 24 22 10 39 -29 77 -42 42z
m27 -29 c-13 -13 -26 -3 -16 12 3 6 11 8 17 5 6 -4 6 -10 -1 -17z"/>
<path d="M281 271 c-40 -40 -19 -151 28 -151 10 0 25 8 34 18 23 26 21 39 -2
18 -39 -36 -85 24 -65 83 11 31 43 40 61 15 16 -22 31 -9 17 14 -16 25 -50 26
-73 3z"/>
<path d="M382 278 c3 -7 13 -46 23 -85 11 -40 21 -73 25 -73 6 0 50 163 44
169 -2 2 -11 -24 -20 -58 -10 -33 -21 -61 -25 -61 -5 0 -14 27 -21 60 -6 33
-16 60 -21 60 -5 0 -7 -6 -5 -12z"/>
<path d="M166 75 c-26 -40 -32 -55 -21 -55 8 0 15 6 15 13 0 7 12 30 26 50 14
21 24 41 21 43 -2 2 -20 -21 -41 -51z"/>
</g>
</svg>
